<?xml version="1.0" encoding="UTF-8"?>
<svg width="597px" height="527px" viewBox="0 0 597 527" version="1.1" xmlns="http://www.w3.org/2000/svg" xmlns:xlink="http://www.w3.org/1999/xlink">
    <title>形状</title>
    <g id="页面-1" stroke="none" stroke-width="1" fill="none" fill-rule="evenodd">
        <g id="castle" transform="translate(0.6131, 0.0425)" fill="#3EA2DA" fill-rule="nonzero">
            <path d="M348.726914,10.6775315 C348.825753,10.6990132 348.928984,10.673981 349.007006,10.6096131 C349.085028,10.5452452 349.129221,10.4486517 349.127,10.3475315 L349.106914,0.337531534 C349.109221,0.236411379 349.065028,0.139817902 348.987006,0.0754500077 C348.908984,0.0110821129 348.805753,-0.0139501037 348.706914,0.00753153363 L323.766914,5.06753153 C323.620295,5.10447162 323.517536,5.23633035 323.517536,5.38753153 C323.517536,5.53873272 323.620295,5.67059145 323.766914,5.70753153 L348.726914,10.6775315 Z M349.086914,118.557532 C372.63358,118.564198 384.570247,118.557532 384.896914,118.537532 C387.816914,118.387532 389.396914,114.517532 389.447393,112.257532 C389.466914,111.410865 388.860247,109.994198 387.626914,108.007532 C383.406914,101.174198 380.666914,96.6008649 379.406914,94.2875315 C369.806914,76.6941982 361.09358,58.3675315 353.266914,39.3075315 C352.11358,36.4941982 351.070247,33.6775315 350.136914,30.8575315 C349.870247,30.0441982 349.52358,29.6375315 349.096914,29.6375315 C348.670247,29.6375315 348.32358,30.0441982 348.056914,30.8575315 C347.116914,33.6775315 346.070247,36.4941982 344.916914,39.3075315 C337.090247,58.3675315 328.37358,76.6941982 318.766914,94.2875315 C317.506914,96.5941982 314.766914,101.164198 310.546914,107.997532 C309.31358,109.984198 308.706914,111.400865 308.726435,112.247532 C308.776914,114.507532 310.356914,118.377532 313.276914,118.527532 C313.60358,118.547532 325.540247,118.557532 349.086914,118.557532 Z M349.776914,194.017532 C359.816914,194.017532 369.84358,193.994198 379.856914,193.947532 C380.42358,193.947532 380.70358,193.660865 380.696914,193.087532 C380.536914,185.567532 380.53358,178.614198 380.686914,172.227532 C380.826914,166.217532 383.666914,163.357532 387.296914,157.647532 C388.36358,155.960865 389.070247,154.074198 389.416914,151.987532 C390.716914,144.087532 380.496914,148.667532 380.456914,142.227532 C380.416914,136.267532 380.45358,130.130865 380.566914,123.817532 C380.572247,123.638172 380.504337,123.464151 380.378396,123.334452 C380.252456,123.204752 380.079011,123.130213 379.896914,123.127532 C377.036914,123.094198 366.990247,123.077532 349.756914,123.077532 C332.530247,123.084198 322.486914,123.104198 319.626914,123.137532 C319.444817,123.140213 319.271372,123.214752 319.145431,123.344452 C319.019491,123.474151 318.951581,123.648172 318.956914,123.827532 C319.070247,130.140865 319.110247,136.277532 319.076914,142.237532 C319.036914,148.677532 308.816914,144.107532 310.116914,151.997532 C310.46358,154.084198 311.170247,155.970865 312.236914,157.657532 C315.866914,163.367532 318.716914,166.227532 318.856914,172.237532 C319.010247,178.624198 319.010247,185.577532 318.856914,193.097532 C318.850247,193.670865 319.130247,193.960865 319.696914,193.967532 C329.710247,194.007532 339.736914,194.024198 349.776914,194.017532 Z M254.986914,174.127532 C255.117938,174.158111 255.255752,174.127062 255.361004,174.04325 C255.466256,173.959438 255.527377,173.832076 255.526916,173.697532 L255.526916,162.457532 C255.527377,162.322987 255.466256,162.195625 255.361004,162.111813 C255.255752,162.028001 255.117938,161.996952 254.986914,162.027532 L230.646914,167.647532 C230.444558,167.691426 230.300188,167.87047 230.300188,168.077532 C230.300188,168.284594 230.444558,168.463637 230.646914,168.507532 L254.986914,174.127532 Z M251.156914,193.627532 C251.117982,193.730647 251.13145,193.846236 251.193046,193.937638 C251.254643,194.029039 251.356725,194.084911 251.466914,194.087532 L259.116914,194.327569 C259.225698,194.329147 259.328686,194.278606 259.393964,194.191569 C259.459242,194.104532 259.478925,193.991512 259.446914,193.887532 L255.996914,182.127532 C255.957637,181.983283 255.828743,181.881616 255.679314,181.877018 C255.529885,181.872421 255.394985,181.965971 255.346914,182.107532 L251.156914,193.627532 Z M308.006914,228.527532 C307.646914,228.257532 307.006914,227.537532 306.796914,227.057532 C304.336914,221.510865 302.116914,214.394198 300.136914,205.707532 C299.956914,204.934198 299.530247,204.930865 298.856914,205.697532 C298.778273,205.782887 298.723165,205.886213 298.696914,205.997532 C295.816914,217.227532 292.036914,229.327532 286.026914,239.827532 C283.406914,244.397532 280.276914,249.477532 275.156914,250.487532 C271.886914,251.127532 270.316914,248.607532 271.376914,245.747532 C272.056914,243.907532 273.18358,242.297532 274.756914,240.917532 C275.199969,240.525661 275.330745,239.892217 275.076914,239.367532 C271.626914,232.087532 268.176914,225.127532 265.666914,217.717532 C263.776914,212.167532 261.166914,205.257532 259.956914,199.117532 C259.875756,198.705551 259.511491,198.408277 259.086914,198.407532 L251.446914,198.407532 C251.049552,198.407532 250.707389,198.683133 250.626914,199.067532 C247.596914,212.677532 241.736914,225.987532 235.396914,238.787532 C234.975512,239.622475 235.191482,240.640027 235.916914,241.237532 C238.476914,243.367532 242.916914,249.887532 236.356914,250.847532 C234.876914,251.067532 232.940247,251.147532 230.546914,251.087532 C230.372879,251.082296 230.209655,251.171715 230.12038,251.321199 C230.031105,251.470683 230.029778,251.65679 230.116914,251.807532 L235.196914,260.597532 C235.54358,261.204198 236.066914,261.500865 236.766914,261.487532 C278.766914,260.927532 318.866914,260.994198 357.066914,261.687532 C358.83358,261.720865 363.866914,261.614198 372.166914,261.367532 C380.546914,261.120865 388.11358,261.207532 394.866914,261.627532 C395.001841,261.636888 395.133307,261.582216 395.221812,261.479944 C395.310317,261.377671 395.345546,261.239717 395.316914,261.107532 C392.190247,246.660865 390.670247,231.390865 390.756914,215.297532 C390.756914,214.805998 390.358447,214.407532 389.866914,214.407532 L381.456914,214.407532 C380.954335,214.407532 380.546914,214.004588 380.546914,213.507532 L380.546914,199.117532 C380.546914,198.780638 380.273808,198.507532 379.936914,198.507532 L319.706914,198.507532 C319.386914,198.507532 319.226914,198.667532 319.226914,198.987532 L319.226914,213.027532 C319.226914,213.751025 318.63593,214.337532 317.906914,214.337532 L310.176914,214.337532 C309.563878,214.337532 309.066914,214.870313 309.066914,215.527532 L309.066914,228.007532 C309.065034,228.257528 308.922063,228.485003 308.697613,228.595111 C308.473163,228.705218 308.205766,228.679056 308.006914,228.527532 Z M432.276914,227.387532 C432.425245,227.424212 432.582207,227.391054 432.703029,227.297514 C432.823852,227.203974 432.89527,227.060322 432.896914,226.907532 L432.916935,215.807532 C432.918342,215.652985 432.848218,215.506465 432.726962,215.410633 C432.605706,215.314802 432.446948,215.280432 432.296914,215.317532 L408.426914,220.827532 C408.204469,220.883281 408.048466,221.083207 408.048466,221.312532 C408.048466,221.541856 408.204469,221.741782 408.426914,221.797532 L432.276914,227.387532 Z M139.286914,234.257532 C139.408427,234.284872 139.535781,234.255494 139.633039,234.177688 C139.730297,234.099881 139.786914,233.982083 139.786914,233.857532 L139.806914,222.487532 C139.806914,222.36298 139.750297,222.245182 139.653039,222.167375 C139.555781,222.089569 139.428427,222.060191 139.306914,222.087532 L114.876914,227.727532 C114.689831,227.769625 114.556914,227.935771 114.556914,228.127532 C114.556914,228.319292 114.689831,228.485438 114.876914,228.527532 L139.286914,234.257532 Z M424.516914,260.967532 C424.468985,261.119927 424.496763,261.28605 424.591664,261.414562 C424.686565,261.543074 424.837162,261.618501 424.996914,261.617541 L441.836914,261.377532 C441.995557,261.3732 442.142723,261.293813 442.233467,261.163614 C442.324212,261.033415 442.347758,260.867868 442.296914,260.717532 L433.526914,235.277532 C433.457341,235.073024 433.264299,234.936322 433.048293,234.938568 C432.832288,234.940869 432.642167,235.081605 432.576914,235.287532 L424.516914,260.967532 Z M134.176914,261.027532 C134.137669,261.135056 134.15348,261.254976 134.219254,261.348654 C134.285028,261.442332 134.392452,261.497929 134.506914,261.497532 L148.096914,261.567534 C148.211376,261.567929 148.3188,261.512332 148.384574,261.418654 C148.450347,261.324976 148.466159,261.205056 148.426914,261.097532 L141.736914,242.107532 C141.689643,241.966878 141.558818,241.871318 141.410451,241.86903 C141.262084,241.866822 141.128424,241.958375 141.076914,242.097532 L134.176914,261.027532 Z M495.936914,267.757532 C496.032771,267.782282 496.134685,267.761271 496.212937,267.700626 C496.291188,267.639981 496.336914,267.546532 496.336914,267.447532 L496.316914,255.957532 C496.316964,255.858531 496.271188,255.765082 496.192937,255.704437 C496.114685,255.643793 496.012771,255.622781 495.916914,255.647532 L471.386914,261.437532 C471.245321,261.473785 471.146286,261.601371 471.146286,261.747532 C471.146286,261.893692 471.245321,262.021278 471.386914,262.057532 L495.936914,267.757532 Z M132.596914,266.297532 C130.90358,270.910865 128.166914,276.687532 124.386914,283.627532 C122.480247,287.127532 119.356914,292.374198 115.016914,299.367532 C111.930247,304.327532 108.516914,309.360865 104.776914,314.467532 C104.652549,314.641408 104.634014,314.870295 104.728926,315.060119 C104.823838,315.249943 105.016186,315.368681 105.226914,315.36754 L176.296914,315.36754 C176.444764,315.365973 176.582853,315.29344 176.668042,315.172589 C176.753232,315.051739 176.775137,314.897305 176.726914,314.757532 C176.500247,314.124198 176.190247,313.510865 175.796914,312.917532 C165.756914,297.650865 157.29358,282.207532 150.406914,266.587532 C150.188443,266.088855 149.697704,265.76693 149.156914,265.767531 L133.346914,265.767531 C133.010309,265.76882 132.710516,265.980673 132.596914,266.297532 Z M411.836914,314.657532 C404.476914,299.517532 399.776914,283.377532 396.106914,266.457532 C396.036384,266.131461 395.745113,265.898444 395.406914,265.897528 L238.546914,265.897528 C238.339476,265.896876 238.146084,266.00148 238.031557,266.176284 C237.91703,266.351088 237.896525,266.572959 237.976914,266.767532 C239.826914,271.187532 240.666914,275.157532 240.616914,280.177532 C240.496914,291.647532 238.906914,304.177532 237.726914,314.437532 C237.701201,314.667471 237.775048,314.897431 237.929828,315.069409 C238.084608,315.241386 238.305546,315.338965 238.536914,315.337547 L411.416914,315.337547 C411.916914,315.337547 412.056914,315.110865 411.836914,314.657532 Z M433.126914,315.277532 C436.306914,315.277532 440.460247,315.317532 445.586914,315.397644 C445.749657,315.400728 445.906253,315.33539 446.018464,315.217474 C446.130674,315.099558 446.188171,314.939916 446.176914,314.777532 C445.696914,306.807532 445.736914,299.367532 451.916914,293.637532 C452.264589,293.314431 452.393319,292.819016 452.246914,292.367532 L443.726914,266.287532 C443.630625,266.00103 443.359082,265.810545 443.056914,265.817346 C438.990247,265.857532 435.680247,265.877532 433.126914,265.877532 C430.57358,265.877532 427.260247,265.857532 423.186914,265.817346 C422.888407,265.814934 422.622082,266.00459 422.526914,266.287532 L414.006914,292.367532 C413.860509,292.819016 413.989238,293.314431 414.336914,293.637532 C420.516914,299.367532 420.556914,306.807532 420.076914,314.777532 C420.065657,314.939916 420.123153,315.099558 420.235364,315.217474 C420.347575,315.33539 420.504171,315.400728 420.666914,315.397644 C425.800247,315.317532 429.95358,315.277532 433.126914,315.277532 Z M213.776914,315.407532 C215.64358,315.394198 220.806914,315.360865 229.266914,315.307532 C229.477879,315.306563 229.673874,315.198386 229.787137,315.020401 C229.9004,314.842416 229.915386,314.619051 229.826914,314.427532 C224.580247,303.040865 220.27358,291.804198 216.906914,280.717532 C215.866914,277.290865 214.90358,273.494198 214.016914,269.327532 C213.90358,268.807532 213.70358,268.547532 213.416914,268.547532 C213.130247,268.554198 212.93358,268.817532 212.826914,269.337532 C212.006914,273.517532 211.10358,277.327532 210.116914,280.767532 C206.92358,291.907532 202.790247,303.210865 197.716914,314.677532 C197.631465,314.871333 197.650861,315.095345 197.768348,315.271576 C197.885835,315.447806 198.085155,315.551868 198.296914,315.547662 C206.756914,315.474198 211.916914,315.427532 213.776914,315.407532 Z M496.006914,315.487532 C498.486914,315.500865 500.93358,315.520865 503.346914,315.547532 C503.522235,315.547532 503.688507,315.469935 503.79922,315.335915 C503.909932,315.201894 503.953198,315.026036 503.916914,314.857532 C501.136914,301.810865 498.726914,288.667532 496.686914,275.427532 C496.600247,274.847532 496.416914,274.557532 496.136914,274.557532 C495.856914,274.557532 495.670247,274.847532 495.576914,275.427532 C493.456914,288.654198 490.96358,301.780865 488.096914,314.807532 C488.057106,314.977461 488.098724,315.156242 488.20986,315.292725 C488.320997,315.429209 488.489409,315.508359 488.666914,315.507532 C491.080247,315.487532 493.526914,315.480865 496.006914,315.487532 Z M544.196914,327.987532 C544.285967,328.008902 544.379904,327.988425 544.451983,327.93193 C544.524063,327.875436 544.566389,327.789111 544.566914,327.697532 L544.546914,316.167532 C544.546389,316.075952 544.504063,315.989627 544.431983,315.933133 C544.359904,315.876638 544.265967,315.856161 544.176914,315.877532 L519.446914,321.687532 C519.315348,321.722379 519.223725,321.841429 519.223725,321.977532 C519.223725,322.113634 519.315348,322.232684 519.446914,322.267532 L544.196914,327.987532 Z M50.5669138,330.317532 C50.6937957,330.34469 50.8261566,330.313101 50.9270991,330.23157 C51.0280415,330.15004 51.0867702,330.027287 51.0869138,329.897532 L51.1269138,318.657532 C51.1269138,318.527776 51.0680415,318.405023 50.9670991,318.323493 C50.8661566,318.241962 50.7337957,318.210373 50.6069138,318.237532 L26.3269138,323.777532 C26.1395621,323.828357 26.0094971,323.998408 26.0094971,324.192532 C26.0094971,324.386655 26.1395621,324.556706 26.3269138,324.607532 L50.5669138,330.317532 Z M451.416914,337.337532 C449.276914,331.610865 447.936914,326.370865 447.396914,321.617532 C447.330687,321.014926 446.81821,320.558434 446.206914,320.557532 L419.656914,320.557532 C419.423266,320.557984 419.205009,320.665263 419.066914,320.847532 L417.676914,322.637532 C417.436321,322.946482 417.058135,323.115955 416.667422,323.089907 C416.276709,323.06386 415.924367,322.845685 415.726914,322.507532 L414.926914,321.127532 C414.700247,320.734198 414.36358,320.537505 413.916914,320.537505 L195.806914,320.537505 C195.049401,320.537505 194.373788,321.009109 194.116914,321.717532 L187.656914,339.097532 C187.321182,340.01144 186.450538,340.618494 185.476914,340.617532 L175.506914,340.617532 C174.998959,340.619678 174.573559,340.233345 174.526914,339.727532 C174.086914,335.274198 174.520247,330.900865 175.826914,326.607532 C176.416914,324.647532 178.296914,322.777532 179.676914,321.157532 C179.770893,321.043811 179.792577,320.88591 179.732486,320.752853 C179.672396,320.619795 179.541459,320.535779 179.396914,320.537505 L102.316914,320.537505 C101.130247,320.537505 100.970247,320.944198 101.836914,321.757532 C104.726914,324.487532 107.316914,327.057532 108.276914,331.147532 C109.906914,338.087532 108.756914,346.407532 107.946914,353.697532 C107.912403,354.005868 108.012166,354.314154 108.220775,354.543816 C108.429385,354.773477 108.726689,354.90233 109.036914,354.897661 C125.096914,354.630865 137.880247,354.500865 147.386914,354.507532 C316.680247,354.620865 414.430247,354.727532 440.636914,354.827532 C442.14358,354.834198 449.440247,354.830865 462.526914,354.817532 C462.813822,354.818282 463.050988,354.598684 463.068612,354.317532 C463.086914,354.024198 462.930247,353.734198 462.596914,353.447532 C457.530247,349.087532 453.80358,343.717532 451.416914,337.337532 Z M496.256914,354.627532 C502.490247,354.654198 510.036914,354.767532 518.896914,354.967532 C519.230247,354.974198 519.440247,354.924198 519.526914,354.817532 C519.702639,354.610041 519.750153,354.344752 519.646914,354.147532 C514.306914,343.977532 510.296914,332.097532 506.746914,321.437532 C506.583907,320.945161 506.129156,320.606093 505.606914,320.587532 C503.746914,320.514198 500.67358,320.470865 496.386914,320.457532 C492.106914,320.437532 489.036914,320.454198 487.176914,320.507532 C486.650922,320.52195 486.191134,320.861793 486.026914,321.357532 C482.396914,331.987532 478.286914,343.837532 472.866914,353.967532 C472.764537,354.164875 472.812017,354.429972 472.986914,354.637532 C473.066914,354.744198 473.27358,354.794198 473.606914,354.787532 C482.466914,354.654198 490.016914,354.600865 496.256914,354.627532 Z M538.966914,354.467532 C538.94251,354.571471 538.966883,354.680866 539.033103,354.764615 C539.099323,354.848364 539.200148,354.897308 539.306914,354.897532 L548.796914,354.787532 C548.906491,354.785841 549.00895,354.732924 549.073758,354.64455 C549.138565,354.556177 549.158238,354.442549 549.126914,354.337532 L544.176914,337.117532 C544.136386,336.961343 543.99433,336.853103 543.832987,336.855438 C543.671643,336.857849 543.532831,336.970218 543.496914,337.127532 L538.966914,354.467532 Z M47.5469138,354.527532 C47.5255298,354.629053 47.5516689,354.734782 47.6178957,354.814644 C47.6841225,354.894506 47.7831886,354.939759 47.8869138,354.93761 L55.9569138,354.717532 C56.0621578,354.712927 56.1593229,354.659798 56.2199965,354.573681 C56.2806701,354.487563 56.2979982,354.378186 56.2669138,354.277532 L51.7969138,338.677532 C51.7549378,338.526782 51.6154889,338.424151 51.4590762,338.428733 C51.3026636,338.43363 51.1696849,338.544517 51.1369138,338.697532 L47.5469138,354.527532 Z M74.7369138,398.107532 C74.9702472,398.107532 75.1002472,397.994198 75.1269138,397.767532 C75.1602472,397.560865 75.0469138,397.240865 74.7869138,396.807532 C68.9069138,387.007532 63.3302472,375.600865 58.0569138,362.587532 C57.7901632,361.940921 57.1626488,361.518632 56.4669138,361.517532 L47.2969138,361.517532 C46.4625008,361.518722 45.7138834,362.025722 45.4069138,362.797532 C42.6069138,369.667532 36.3769138,386.137532 30.3669138,397.227532 C30.2269138,397.480865 30.1935805,397.674198 30.2669138,397.807532 C30.3532044,397.96137 30.5136656,398.056882 30.6869138,398.057532 L74.7369138,398.107532 Z M520.166914,361.867532 C519.29358,361.660865 518.116914,361.557532 516.636914,361.557532 C423.730247,361.690865 295.896914,361.707532 133.136914,361.607532 C124.68358,361.600865 116.35358,361.517532 108.146914,361.357165 C107.43358,361.344198 107.046914,361.694198 106.986914,362.407532 C105.97358,373.827532 103.640247,385.467532 99.9869138,397.327532 C99.9302525,397.517567 99.9663728,397.723189 100.084408,397.882536 C100.202443,398.041883 100.388615,398.136356 100.586914,398.137532 L565.406914,398.137532 C566.05358,398.137532 566.23358,397.847532 565.946914,397.267532 C560.300247,385.747532 555.62358,374.027532 551.916914,362.107532 C551.8165,361.786925 551.517036,361.568397 551.176914,361.567532 L537.496914,361.567532 C536.750188,361.567254 536.075052,362.006877 535.776914,362.687532 L530.506914,374.737532 C530.357061,375.077463 530.035241,375.310579 529.666986,375.345948 C529.298731,375.381318 528.942372,375.213337 528.736914,374.907532 C526.710247,371.920865 524.42358,367.884198 521.876914,362.797532 C521.676914,362.397532 521.106914,362.087532 520.166914,361.867532 Z M24.1869138,407.787532 C23.9135805,408.007532 23.6835805,408.264198 23.4969138,408.557532 C17.0835805,418.597532 9.5435805,428.147532 0.876913831,437.207532 C0.363580498,437.747532 0.0735804982,438.264198 0.00691383149,438.757532 C-0.0224637877,438.969543 0.0426836659,439.183766 0.185121172,439.343527 C0.327558678,439.503288 0.532933839,439.592489 0.746913831,439.587728 C3.48691383,439.520865 6.2835805,439.487532 9.13691383,439.487532 C143.80358,439.367532 223.39358,439.390865 247.906914,439.557532 C249.280247,439.570865 250.326914,439.254198 251.046914,438.607532 C268.896914,422.607532 293.806914,418.107532 316.696914,424.157532 C326.416914,426.730865 334.91358,431.420865 342.186914,438.227532 C342.526914,438.547532 342.886914,438.797532 343.266914,438.977532 C343.780247,439.230865 344.200247,439.354198 344.526914,439.347532 C381.060247,439.300865 464.73358,439.304198 595.546914,439.357532 C595.76864,439.356139 595.969437,439.226291 596.061675,439.024656 C596.153912,438.823021 596.120849,438.586195 595.976914,438.417532 C588.136914,429.417532 580.060247,419.327532 571.746914,408.147532 C571.266914,407.507532 570.330247,407.194198 568.936914,407.207532 C559.336914,407.287532 548.496914,407.330865 536.416914,407.337532 C208.090247,407.390865 37.8302472,407.354198 25.6369138,407.227532 C25.1302472,407.220865 24.6469138,407.407532 24.1869138,407.787532 Z M224.216914,479.497532 C227.366914,469.037532 232.236914,460.837532 238.956914,452.487532 C239.087719,452.329777 239.11389,452.110875 239.024166,451.925018 C238.934442,451.739161 238.744828,451.619503 238.536914,451.617531 L24.5169138,451.617531 C24.143506,451.617207 23.8377264,451.909692 23.8269138,452.277532 C23.5535805,461.624198 22.7669138,470.710865 21.4669138,479.537532 C21.4468516,479.688041 21.4923068,479.839927 21.591752,479.954672 C21.6911973,480.069416 21.8350807,480.135998 21.9869138,480.137537 L223.366914,480.137537 C223.759021,480.138935 224.10561,479.877973 224.216914,479.497532 L224.216914,479.497532 Z M367.236914,473.517532 C368.390247,476.850865 369.110247,478.917532 369.396914,479.717532 C369.518673,480.048531 369.834231,480.268223 370.186914,480.267534 L573.566914,480.267534 C573.62097,480.267832 573.672594,480.245093 573.708862,480.205008 C573.745129,480.164923 573.762605,480.111288 573.757971,480.057528 L571.236914,452.137532 C571.210779,451.809255 570.936227,451.556493 570.606914,451.557528 L356.166914,451.557528 C356.020982,451.559379 355.888293,451.642551 355.823025,451.773087 C355.757757,451.903623 355.770833,452.059677 355.856914,452.177532 C360.82358,458.857532 364.616914,465.970865 367.236914,473.517532 Z M20.1469138,497.59753 C19.6802472,497.59753 19.4169138,497.827532 19.3569138,498.287532 C18.1369138,508.134198 16.2002472,517.297532 13.5469138,525.777532 C13.3669138,526.357532 13.5802472,526.647532 14.1869138,526.647532 L219.896914,526.647532 C220.350247,526.647532 220.546914,526.424198 220.486914,525.977532 C219.260247,516.817532 219.110247,507.507532 220.036914,498.047532 C220.04824,497.932205 220.009042,497.817483 219.929015,497.73174 C219.848988,497.645997 219.735606,497.59753 219.616914,497.59753 L20.1469138,497.59753 Z M372.356914,526.717545 L581.116914,526.717545 C581.297396,526.7188 581.467015,526.631438 581.570785,526.483765 C581.674555,526.336093 581.699268,526.146905 581.636914,525.977532 C578.396914,517.407532 577.086914,507.097532 575.836914,498.137532 C575.787435,497.799713 575.498334,497.548875 575.156914,497.547532 L371.646914,497.547532 C371.240247,497.547532 371.06358,497.747532 371.116914,498.147532 C372.310247,507.554198 372.436914,516.770865 371.496914,525.797532 C371.471325,526.032218 371.550507,526.266691 371.714647,526.442283 C371.878787,526.617875 372.112357,526.717973 372.356914,526.717545 Z" id="形状"></path>
        </g>
    </g>
</svg>